<?xml version="1.0" encoding="UTF-8"?><svg id="Capa_1" xmlns="http://www.w3.org/2000/svg" viewBox="0 0 906.61 881.27"><defs><style>.cls-1{fill:#fff;}.cls-2{fill:#39a900;}.cls-3{fill:#39a900;}.cls-4{fill:#39a900;}</style></defs><path class="cls-4" d="M410.81,395.71c-81.21,140.16-162.28,280.07-243.36,420-10.14-9.34-20.08-18.44-29.96-27.61-3.35-3.11-6.67-6.27-9.75-9.64-2.27-2.48-6.89-3.55-6.85-7.04,.04-2.79,2.81-5.54,4.38-8.3,8.22-14.52,16.34-29.09,24.68-43.53,7.33-12.71,15.49-24.97,22.19-38,5.77-11.23,12.21-22.08,18.51-32.95,9.67-16.69,18.83-33.67,28.79-50.18,7.58-12.57,14.89-25.31,22.05-38.1,6.15-10.98,12.72-21.76,18.45-33.02,5.29-10.38,11.67-20.22,17.89-30.1,1.91-3.03,1.38-6.26,2.11-9.35,2.73-11.62-4.39-24.74-15.38-29.2-2.06-.84-4.18-.52-6.27-.52-84.07,0-168.15-.01-252.22,.19-4.98,.01-6.13-1.2-6.04-6.1,.32-17.46,.25-34.94-.03-52.4-.07-4.51,1.69-5.58,5.68-5.47,7.02,.18,14.04,.05,21.06,.05,120.32,0,240.63,0,360.95-.02,7.64,0,15.26-.02,23.13,1.3Z"/><path class="cls-3" d="M703.62,395.41c66.11,0,132.23,.03,198.34-.09,3.63,0,4.68,.8,4.64,4.51-.19,18.12-.16,36.24,0,54.36,.03,3.23-.88,4.06-4.06,4.05-59.58-.1-119.17,.4-178.75-.33-24.28-.3-48.57-.02-72.85-.7-10.84-.31-18.48,5.97-21.77,14.3-3.17,8.03-3.9,17.68,1.32,26.66,6.26,10.77,12.58,21.53,18.73,32.38,4.55,8.04,9.26,16.05,14.14,23.93,4.95,7.99,9.28,16.37,13.97,24.52,3.26,5.68,6.68,11.28,10.02,16.92,3.41,5.77,6.86,11.52,10.21,17.33,4.72,8.18,9.31,16.43,14.05,24.59,4.8,8.28,9.73,16.48,14.55,24.74,4.77,8.17,9.47,16.38,14.19,24.59,3.49,6.08,6.93,12.18,10.44,18.25,4.56,7.88,9.19,15.73,13.76,23.61,3.6,6.2,7.11,12.45,10.74,18.64,3.32,5.66,6.45,11.45,10.17,16.85,3.75,5.44,4.1,5.61-.87,10.14-13.67,12.45-27.48,24.76-41.14,37.22-2.74,2.5-4.33,1.82-5.79-1.15-6.71-13.66-14.65-26.67-22.27-39.79-8.93-15.36-17.62-30.87-26.79-46.09-7.73-12.82-14.51-26.21-21.93-39.22-7.52-13.17-15.43-26.12-22.97-39.28-8.93-15.59-17.51-31.39-26.49-46.96-8.04-13.95-16.12-27.86-23.95-41.93-7.37-13.24-15.39-26.11-22.94-39.25-7.5-13.06-14.66-26.3-22.14-39.37-6.03-10.53-12.43-20.84-18.44-31.38-6.17-10.81-12.02-21.81-18.11-32.67-3.12-5.57-6.47-11.01-9.7-16.52-.39-.67-1.12-1.44-1.01-2.04,.24-1.29,1.53-.81,2.42-.87,.98-.07,1.96,0,2.94,0,65.79,0,131.58,0,197.36,0v.05Z"/><path class="cls-3" d="M453.46,470.71c4.39,5.1,7.11,11.31,10.71,16.89,4.15,6.43,8.11,13.04,11.8,19.73,5.2,9.41,11.15,18.33,16.45,27.66,5.07,8.93,10.67,17.55,15.92,26.36,5.73,9.63,11.25,19.39,17.13,28.94,9.5,15.43,18.53,31.14,27.92,46.64,6.11,10.1,12.29,20.2,18.18,30.46,5.8,10.09,11.58,20.22,18.01,29.97,6.23,9.46,11.45,19.58,17.29,29.3,7.93,13.19,16.4,26.06,23.94,39.47,7.08,12.59,14.68,24.85,21.95,37.32,7.32,12.55,14.96,24.93,22.52,37.34,1.66,2.72,2.63,5.82,5.12,8.12,1.21,1.12,1.7,3-.71,4.21-14.23,7.13-28.57,14.06-42.5,21.73-3.45,1.9-7.52,2.78-10.43,5.71-1.9,1.91-2.77-.48-3.22-1.32-6.45-12.2-13.87-23.82-20.98-35.63-5.36-8.9-10.6-17.88-15.86-26.82-4.6-7.82-9.13-15.72-13.67-23.6-4.7-8.16-10.15-15.9-14.59-24.18-4.32-8.05-9.11-15.8-13.73-23.66-7.55-12.83-15.35-25.52-22.91-38.34-4.78-8.12-9.25-16.42-13.99-24.57-4.75-8.15-9.72-16.19-14.52-24.31-4.56-7.71-8.9-15.56-13.6-23.19-3.85-6.25-7.87-11.9-14.99-15.75-10.2-5.52-28.02,1.56-32.9,12.1-3.96,8.54-9.53,16.33-14.37,24.46-4.83,8.13-9.64,16.27-14.46,24.41-4.63,7.83-9.31,15.64-13.87,23.51-4.81,8.29-10.09,16.29-14.67,24.74-4.49,8.27-9.95,16-14.55,24.22-4.52,8.09-9.62,15.82-13.97,24.03-5.23,9.86-11.54,19.14-17.26,28.75-6.61,11.1-12.99,22.34-19.63,33.42-7.48,12.49-15.14,24.88-22.69,37.33-.49,.81-.65,1.8-1.06,2.67-.88,1.88-1.33,3.05-4.12,1.34-5.94-3.65-12.41-6.45-18.68-9.55-7.88-3.89-15.85-7.6-23.67-11.63-3.2-1.65-8.61-1.62-8.95-5.53-.25-2.84,3.31-5.98,5.09-9.04,7.48-12.89,15.3-25.59,22.68-38.51,5.95-10.42,12.35-20.59,17.85-31.29,4.15-8.09,9.25-15.69,13.85-23.55,6.45-11.03,12.52-22.29,19.33-33.08,5.12-8.12,9.43-16.69,14.73-24.72,5.16-7.83,9.05-16.48,13.77-24.62,4.73-8.15,9.91-16.05,14.69-24.17,4.79-8.15,9.23-16.51,14.01-24.67,5.81-9.94,11.85-19.73,17.69-29.65,6.09-10.33,11.99-20.78,18.11-31.1,7.84-13.21,15.14-26.73,23.33-39.74,5-7.96,9.28-16.37,13.94-24.54,3.17-5.55,6.11-11.28,9.83-16.44,1.71-2.38,1.77-5.64,4.69-7.63Z"/><path class="cls-3" d="M361.52,95.03C362.63,40.74,404.03,.36,456.21,0c52.72-.36,95.84,41.15,95.46,95.51-.38,54.76-42.73,94.34-94.03,94.54-54.25,.21-94.68-40.39-96.11-95.02Z"/><path class="cls-3" d="M636.2,291.73c0,18.45-.19,36.9,.13,55.34,.08,4.73-1.48,5.48-5.72,5.43-18.77-.22-37.57-.62-56.31,.16-7.72,.32-12.1-3.15-16.39-8.22-6.89-8.14-13.65-16.4-20.73-24.38-13.01-14.66-26.09-29.25-38.56-44.38-.1-.13-.22-.24-.33-.36-2.55-2.58-4.51-6.68-9.07-5.16-4.84,1.61-3.97,6.03-3.96,9.89,.02,22.69-.05,45.39,.11,68.08,.02,3.36-.75,4.43-4.27,4.37-13.38-.22-26.77-.2-40.16,0-3.3,.05-4-1-3.99-4.12,.11-37.55,.13-75.1-.02-112.65-.02-4.09,1.7-4.98,5.18-4.97,18.94,.06,37.88,.16,56.81-.04,6.88-.07,10.34,4.7,14.2,8.91,6.67,7.28,12.96,14.91,19.61,22.21,12.14,13.33,24.51,26.46,36.59,39.85,2.6,2.89,5.2,5.79,7.81,8.68,1.89,2.1,4.16,3.81,6.74,2.29,2.43-1.43,4.76-3.64,4.03-7.15-1.43-6.92-.83-13.92-.86-20.88-.07-16.33,.11-32.65-.14-48.98-.05-3.54,1.57-4.76,4.33-4.79,14.2-.14,28.41-.04,42.61-.11,3.49-.02,2.34,2.49,2.34,4.14,.06,18.94,.04,37.88,.04,56.81Z"/><path class="cls-3" d="M879.47,352.46c-15.83,0-30.79,0-45.75,0-1.79,0-3.68-.21-5.34,.29-2.93,.87-4.98-.55-5.96-2.66-2.49-5.36-6.24-9.98-8.57-15.45-1.43-3.35-4.7-4.77-8.38-4.77-27.42-.01-54.83-.03-82.25,.02-4,0-7,1.77-8.96,5.48-2.77,5.23-5.85,10.28-8.74,15.44-.87,1.55-2.25,1.65-3.75,1.65-14.52,0-29.05,.01-43.57-.01-.89,0-2.09,.44-2.56-.76-.45-1.16,.74-1.64,1.26-2.4,6.35-9.09,12.71-18.18,19.05-27.28,5.61-8.04,11.22-16.09,16.82-24.14,7.79-11.22,15.59-22.44,23.36-33.66,6.95-10.04,13.88-20.09,20.82-30.13,1.18-1.71,2.7-2.53,4.92-2.53,18.28,.08,36.55,.07,54.83,0,1.89,0,2.81,.72,3.8,2.23,4.67,7.1,9.54,14.07,14.27,21.12,6.7,9.99,13.39,19.99,20.01,30.03,8.92,13.52,17.75,27.1,26.68,40.61,5.8,8.79,11.7,17.51,18,26.92Z"/><path class="cls-3" d="M70.11,314.09c7.02,0,14.04,.02,21.05-.02,2.09-.01,3.59,.11,4.15,2.85,1.4,6.8,5.43,10.7,12.4,13.04,10.11,3.38,20.31,3.88,30.61,3.42,8.63-.38,17.51-1,24.14-7.91,4.96-5.17,4.14-11.29-1.87-15.16-8.55-5.51-18.53-6.12-28.06-7.5-7-1.02-13.9-2.75-20.93-3.32-9.02-.73-17.78-2.95-26.41-5.16-10.73-2.75-22.25-5.36-30.01-13.97-10.91-12.11-10.9-24.37,1.13-35.97,8.65-8.34,20.17-11.06,31.65-13.7,19.85-4.56,39.97-4.16,60.04-3.66,15.61,.4,31.09,3,45.66,8.91,8.18,3.32,14.76,8.96,17.55,17.98,1.71,5.52,1.25,6.33-4.18,6.33-12.4,0-24.81-.04-37.21,.04-2.42,.02-4.02-.29-5.35-2.84-3.53-6.74-10.3-9.23-17.07-10.49-10.55-1.97-21.32-2.26-31.94-.24-3.85,.73-7.8,2-10.84,4.87-5.66,5.36-3.77,12.99,3.2,16.56,7.71,3.95,16.12,3.89,24.19,5.71,11.27,2.54,22.74,4.15,34.1,6.11,11.15,1.92,21.89,4.82,32.32,8.84,11.62,4.47,19.47,13.3,20.56,25.65,.68,7.72-3.39,15.29-9.96,20.36-10.1,7.79-21.93,11.35-34.31,13.84-8.76,1.76-17.49,2.52-26.38,3.09-11.4,.74-22.8,1.06-34.15,.46-11.04-.58-22.07-1-33.05-3.87-8.16-2.14-15.81-4.91-22.95-9.03-7.08-4.08-10.54-11.01-12.02-18.86-1.2-6.32-1.07-6.34,5.33-6.33,6.2,0,12.4,0,18.61,0Z"/><path class="cls-2" d="M326.39,352.41c-23.67,0-47.33-.09-71,.09-3.69,.03-4.54-.94-4.52-4.6,.15-37.21,.18-74.43,0-111.64-.02-4.48,1.63-5.5,5.61-5.5,45.37,.07,90.75,.06,136.12,.02,4.36,0,7.09,1.02,6.35,6.27-.43,3.04-.25,6.2-.03,9.29,.33,4.44-1.06,6.25-5.96,6.21-27.42-.23-54.84-.12-82.26-.12-6.27,0-8.67,2.45-8.67,8.79,0,3.1-.02,6.2,.04,9.3,.11,5.56,2.85,8.28,8.32,8.28,25.46,0,50.92,.09,76.38-.1,3.76-.03,4.79,1.01,4.49,4.62-.33,4.05-.3,8.17,0,12.23,.24,3.31-.96,4.03-4.09,4.02-25.13-.13-50.27-.08-75.4-.08-6.54,0-9.68,3.14-9.7,9.71-.01,4.41-.04,8.81-.02,13.22,.01,5.63,2.62,8.29,8.19,8.29,28.89,0,57.78,.08,86.67-.11,4.07-.03,5.46,.99,5.09,5.11-.37,4.05-.37,8.18,0,12.23,.35,3.8-1.03,4.56-4.6,4.54-23.67-.16-47.33-.08-71-.08Z"/><path class="cls-1" d="M764.8,307.38c-7.66,0-15.31,.03-22.97-.01-5.03-.03-7.31-3.87-4.6-8.15,6.99-11.08,14.2-22.02,21.28-33.04,2.08-3.24,2.7-8,8.45-7.05,1.96,.32,3.41,.87,4.33,2.6,6.33,11.83,13.25,23.31,20.37,34.67,1.02,1.63,1.76,3.43,1.96,5.46,.37,3.72-1,5.47-4.89,5.41-7.98-.12-15.97-.04-23.95-.04v.16Z"/></svg>